<svg width="15" height="15" viewBox="0 0 15 15" fill="none" xmlns="http://www.w3.org/2000/svg">
<g clip-path="url(#clip0_99_980)">
<path d="M15.0011 1.25443C15.0059 1.00109 14.9297 0.752842 14.7838 0.545712C14.682 0.385787 14.5432 0.252712 14.3791 0.157729C14.2151 0.0627458 14.0306 0.00864606 13.8412 0L9.07153 0C8.95221 0.0155842 8.83389 0.0380645 8.71717 0.0673281C8.46634 0.173536 8.2533 0.352827 8.10582 0.581844C7.95834 0.81086 7.88325 1.07898 7.89034 1.35129C7.89034 2.79943 7.89034 4.24718 7.89034 5.69454C7.88441 5.88062 7.91674 6.06594 7.98531 6.23903C8.05389 6.41212 8.15725 6.56929 8.28901 6.70082C8.42077 6.83236 8.57811 6.93546 8.75131 7.00374C8.92452 7.07202 9.10989 7.10404 9.29596 7.0978C9.74954 7.0978 10.2019 7.0978 10.6555 7.0978H13.6534C14.3704 7.0978 15 6.53792 14.9976 5.79849C14.9929 4.28656 15.0011 2.77108 15.0011 1.25443ZM12.7391 3.98181H10.1665C10.1056 3.98729 10.0441 3.98002 9.98617 3.96046C9.9282 3.9409 9.87493 3.90947 9.82977 3.86819C9.78461 3.82691 9.74854 3.77668 9.72386 3.72069C9.69919 3.6647 9.68644 3.60418 9.68644 3.543C9.68644 3.48181 9.69919 3.42129 9.72386 3.3653C9.74854 3.30932 9.78461 3.25908 9.82977 3.2178C9.87493 3.17652 9.9282 3.14509 9.98617 3.12553C10.0441 3.10597 10.1056 3.0987 10.1665 3.10418C10.5953 3.10418 11.024 3.10418 11.4528 3.10418C11.8816 3.10418 12.3104 3.10418 12.7391 3.10418C13.025 3.10418 13.2223 3.28018 13.2258 3.53532C13.2293 3.79046 13.0309 3.98181 12.7391 3.98181Z" fill="black"/>
<path d="M7.09552 1.31113C7.09603 1.05524 7.02171 0.804794 6.88172 0.590598C6.78271 0.418617 6.64195 0.274355 6.47246 0.171132C6.30297 0.0679099 6.1102 0.00905441 5.91196 0L1.14348 0C0.989467 0.0119534 0.838946 0.0519857 0.699347 0.11812C0.316639 0.340184 0.0366961 0.634302 0.0177969 1.1056V1.1115C0.0172194 1.11463 0.0172194 1.11783 0.0177969 1.12095C0.0177969 1.16702 0.0307901 1.21545 0.00244141 1.25915V5.97212C0.0414209 6.06662 0.0260653 6.17175 0.0697695 6.2686C0.313096 6.8025 0.735964 7.08717 1.31121 7.09544C2.7877 7.1108 4.26419 7.10489 5.74305 7.09544C6.10165 7.09513 6.44548 6.95254 6.69905 6.69897C6.95261 6.4454 7.09521 6.10157 7.09552 5.74297C7.10143 4.2653 7.09788 2.78762 7.09552 1.31113ZM4.8607 3.98063C4.60792 3.98063 4.35397 3.98063 4.10119 3.98063C4.00906 3.98063 3.9748 3.99835 3.98307 4.09875C3.99134 4.34207 3.98307 4.5854 3.98307 4.82991C3.98698 4.89018 3.97843 4.95061 3.95793 5.00743C3.93744 5.06425 3.90546 5.11623 3.86398 5.16014C3.8225 5.20404 3.77241 5.23892 3.71685 5.2626C3.66128 5.28627 3.60143 5.29824 3.54103 5.29776C3.48064 5.29727 3.42099 5.28433 3.36581 5.25976C3.31064 5.23518 3.26112 5.1995 3.22036 5.15493C3.17959 5.11036 3.14845 5.05787 3.12888 5.00073C3.10932 4.94359 3.10174 4.88302 3.10662 4.82282C3.10662 4.57949 3.10072 4.33499 3.10662 4.09166C3.10662 3.99717 3.07946 3.97354 2.9885 3.98063C2.74518 3.98653 2.50067 3.98063 2.25734 3.98063C2.1964 3.98611 2.13499 3.97884 2.07701 3.95928C2.01904 3.93972 1.96577 3.90829 1.92061 3.86701C1.87545 3.82573 1.83938 3.7755 1.81471 3.71951C1.79003 3.66352 1.77728 3.603 1.77728 3.54181C1.77728 3.48063 1.79003 3.42011 1.81471 3.36412C1.83938 3.30813 1.87545 3.2579 1.92061 3.21662C1.96577 3.17534 2.01904 3.14391 2.07701 3.12435C2.13499 3.10479 2.1964 3.09752 2.25734 3.103C2.50067 3.103 2.744 3.103 2.9885 3.103C3.07473 3.103 3.10662 3.08764 3.10662 2.99315C3.09835 2.74864 3.10662 2.50532 3.10662 2.26081C3.10258 2.2003 3.111 2.13961 3.13137 2.0825C3.15174 2.02538 3.18362 1.97305 3.22504 1.92876C3.26645 1.88446 3.31652 1.84915 3.37214 1.82499C3.42776 1.80083 3.48775 1.78836 3.54839 1.78833C3.80353 1.78833 3.98189 1.98795 3.98307 2.27262C3.98307 2.51595 3.98307 2.76045 3.98307 3.00378C3.98307 3.08883 4.00787 3.11127 4.0882 3.10654C4.22049 3.10064 4.3516 3.10654 4.4839 3.10654C4.61619 3.10654 4.73667 3.10654 4.86424 3.10654C4.97638 3.11237 5.082 3.16102 5.15931 3.24245C5.23662 3.32389 5.27972 3.43189 5.27972 3.54418C5.27972 3.65646 5.23662 3.76447 5.15931 3.8459C5.082 3.92733 4.97638 3.97598 4.86424 3.98181L4.8607 3.98063Z" fill="black"/>
<path d="M7.09434 9.22396C7.09154 8.87011 6.94933 8.53165 6.69857 8.28199C6.44781 8.03233 6.10871 7.89162 5.75486 7.89039C4.27286 7.8833 2.79085 7.8833 1.30884 7.89039C1.12774 7.88992 0.948465 7.92657 0.782079 7.99808C0.615694 8.06959 0.46573 8.17444 0.341444 8.30617C0.148368 8.49501 0.0282886 8.74605 0.00244141 9.01488V13.7267C0.019562 13.7759 0.0244269 13.8287 0.0166158 13.8802C0.0160315 13.8861 0.0160315 13.8921 0.0166158 13.8979C0.0175774 13.9951 0.033514 14.0915 0.0638636 14.1838C0.157588 14.4236 0.321207 14.6298 0.533508 14.7756C0.745808 14.9213 0.996998 14.9999 1.25451 15.0012C2.76998 15.0012 4.28664 15.0012 5.80211 15.0012C5.95824 15.0088 6.11417 14.9826 6.25923 14.9244C6.78605 14.6882 7.08607 14.2712 7.08607 13.7019C7.10969 12.2077 7.10379 10.7158 7.09434 9.22396ZM4.78274 12.6837C4.59965 12.8668 4.33743 12.8561 4.13308 12.6553C3.95945 12.4841 3.77872 12.314 3.6169 12.1368C3.55902 12.0765 3.52477 12.0777 3.46807 12.1368C3.29916 12.3128 3.12552 12.4841 2.95189 12.6541C2.74518 12.8561 2.48531 12.8656 2.30223 12.6825C2.11914 12.4994 2.12977 12.2372 2.33058 12.0328C2.50185 11.8592 2.67312 11.6856 2.84912 11.5167C2.90936 11.4588 2.90936 11.4257 2.84912 11.3678C2.66249 11.1895 2.47941 11.0135 2.30105 10.8198C2.23685 10.7586 2.19369 10.6787 2.17778 10.5914C2.16186 10.5042 2.174 10.4142 2.21246 10.3343C2.24771 10.2546 2.3058 10.1871 2.37939 10.1405C2.45298 10.0938 2.53876 10.07 2.62588 10.0721C2.74576 10.0801 2.85827 10.1328 2.94126 10.2197C3.11607 10.3969 3.29561 10.5741 3.46807 10.7489C3.52477 10.8079 3.55784 10.8103 3.6169 10.7489C3.7799 10.5741 3.95826 10.4028 4.13426 10.2327C4.33861 10.0307 4.59965 10.0201 4.78274 10.2032C4.96582 10.3863 4.95637 10.6473 4.75557 10.8528C4.58548 11.0276 4.41421 11.2072 4.23821 11.369C4.17797 11.4269 4.17679 11.46 4.23821 11.5178C4.41421 11.6867 4.58548 11.8604 4.75557 12.034C4.9611 12.2395 4.9611 12.5018 4.78274 12.6837Z" fill="black"/>
<path d="M0 1.11387C0.00110953 1.11172 0.00264638 1.10982 0.00451606 1.10829C0.00638573 1.10676 0.00854873 1.10563 0.010872 1.10497C0.0131954 1.1043 0.0156299 1.10412 0.018026 1.10443C0.0204221 1.10475 0.0227291 1.10554 0.0248051 1.10678C0.0331795 1.1325 0.0352976 1.15985 0.0309835 1.18656C0.0266695 1.21327 0.0160477 1.23856 0 1.26034L0 1.11387Z" fill="#3D3D3D"/>
<path d="M0.0259863 13.879H0.0129931L0 13.872V13.7255C0.0165165 13.747 0.0275181 13.7723 0.0320472 13.799C0.0365763 13.8258 0.0344956 13.8533 0.0259863 13.879Z" fill="#3D3D3D"/>
<path d="M14.981 9.30073C14.981 8.49752 14.414 7.93291 13.6096 7.93291H9.3101C8.49625 7.93291 7.93164 8.49516 7.93164 9.309C7.93164 10.7414 7.93164 12.1746 7.93164 13.6086C7.93164 14.42 8.49625 14.9835 9.3101 14.9846H13.5943C14.4211 14.9846 14.981 14.4236 14.9822 13.6003V11.4659C14.9822 10.7489 14.9834 10.0224 14.981 9.30073ZM12.7367 12.7605C11.8792 12.7605 11.022 12.7605 10.1653 12.7605C10.1044 12.7655 10.0431 12.7579 9.98534 12.7381C9.92755 12.7184 9.87446 12.6869 9.82942 12.6456C9.78438 12.6043 9.74837 12.5542 9.72364 12.4984C9.69891 12.4425 9.68599 12.3821 9.68572 12.321C9.68572 12.0659 9.88416 11.884 10.1665 11.8828H12.7379C13.0238 11.8828 13.221 12.0588 13.2246 12.3151C13.2281 12.5715 13.0309 12.7569 12.7379 12.7569L12.7367 12.7605ZM12.7568 11.004C12.3186 11.004 11.8804 11.004 11.4422 11.004H10.17C9.88652 11.004 9.68808 10.8233 9.6869 10.5682C9.68674 10.5075 9.6991 10.4475 9.72321 10.3918C9.74732 10.3362 9.78265 10.2861 9.827 10.2448C9.87136 10.2034 9.92377 10.1717 9.98096 10.1515C10.0382 10.1313 10.0989 10.1232 10.1594 10.1276H12.7568C12.8171 10.1231 12.8776 10.1312 12.9346 10.1512C12.9916 10.1712 13.0439 10.2028 13.0881 10.2439C13.1324 10.285 13.1677 10.3348 13.1918 10.3902C13.216 10.4456 13.2284 10.5054 13.2284 10.5658C13.2284 10.6262 13.216 10.686 13.1918 10.7414C13.1677 10.7967 13.1324 10.8466 13.0881 10.8877C13.0439 10.9288 12.9916 10.9604 12.9346 10.9804C12.8776 11.0004 12.8171 11.0084 12.7568 11.004Z" fill="black"/>
</g>
<defs>
<clipPath id="clip0_99_980">
<rect width="14.9976" height="15" fill="white"/>
</clipPath>
</defs>
</svg>
