<svg width="18" height="15" viewBox="0 0 18 15" fill="none" xmlns="http://www.w3.org/2000/svg">
<g clip-path="url(#clip0_100_1019)">
<path d="M12.3362 0.577969C12.3392 0.511217 12.3335 0.444364 12.3192 0.37908C12.2512 0.118994 12.0694 0 11.7294 0H2.03989C1.97189 0 1.9056 0 1.8393 0C1.46512 0.0151387 1.10385 0.140978 0.80124 0.361582C0.498628 0.582185 0.268289 0.88763 0.139393 1.23923C0.0764959 1.37693 0.0424977 1.51462 0 1.65061V10.7451C0.239687 11.1667 0.509973 11.2194 0.907752 10.9372C1.76451 10.332 2.62069 9.72122 3.47631 9.10472C3.74873 8.9022 4.08036 8.79524 4.41976 8.80043C6.39166 8.80043 8.36355 8.80043 10.3354 8.80043C10.5997 8.80934 10.8629 8.76409 11.109 8.66747C11.3551 8.57085 11.5788 8.4249 11.7664 8.2386C11.9539 8.05229 12.1014 7.82958 12.1997 7.58417C12.298 7.33875 12.345 7.07581 12.3379 6.81154C12.3379 4.73425 12.3374 2.65639 12.3362 0.577969ZM3.15673 3.01564C3.20196 2.92119 3.27516 2.84295 3.3664 2.79155C3.45764 2.74015 3.56249 2.71809 3.6667 2.72835H9.3274C9.64699 2.72835 9.86797 2.89835 9.89687 3.17373C9.90599 3.24584 9.89911 3.31907 9.87672 3.38822C9.85432 3.45737 9.81696 3.52073 9.7673 3.5738C9.71764 3.62687 9.65689 3.66834 9.58938 3.69527C9.52187 3.7222 9.44925 3.73392 9.3767 3.7296C8.78003 3.7296 8.18676 3.7296 7.5884 3.7296H6.50215C5.5451 3.7296 4.58636 3.7296 3.62931 3.7296C3.54273 3.73479 3.45631 3.71713 3.37872 3.67838C3.30112 3.63964 3.23508 3.58117 3.18721 3.50885C3.13934 3.43653 3.11132 3.35289 3.10597 3.26632C3.10062 3.17976 3.11813 3.09331 3.15673 3.01564ZM9.3784 6.07548C8.82083 6.07548 8.26326 6.07548 7.70739 6.07548H6.48685C5.5349 6.07548 4.58296 6.07548 3.63101 6.07548C3.54298 6.08111 3.45504 6.0631 3.37631 6.02332C3.29758 5.98354 3.23093 5.92342 3.18324 5.84921C3.13556 5.775 3.10859 5.68939 3.10512 5.60125C3.10166 5.51311 3.12182 5.42564 3.16353 5.34791C3.21003 5.25802 3.28221 5.184 3.37091 5.13526C3.45961 5.08652 3.5608 5.06528 3.66161 5.07423H9.3257C9.65379 5.07423 9.87647 5.25612 9.89857 5.53491C9.90452 5.60542 9.89526 5.67638 9.87144 5.74301C9.84761 5.80964 9.80977 5.87038 9.76047 5.92114C9.71116 5.97189 9.65154 6.01148 9.58563 6.03722C9.51972 6.06297 9.44905 6.07427 9.3784 6.07038V6.07548Z" fill="black"/>
<path d="M17.118 10.1009V14.4492C17.1243 14.5254 17.1134 14.602 17.0861 14.6734C17.0589 14.7448 17.0159 14.8091 16.9604 14.8617C16.9049 14.9142 16.8383 14.9537 16.7656 14.977C16.6928 15.0004 16.6157 15.0071 16.54 14.9966C16.4357 14.9777 16.3383 14.9313 16.2578 14.8623C15.3875 14.2418 14.5154 13.6248 13.6485 12.9924C13.3642 12.7844 13.0197 12.6752 12.6676 12.6813C10.7116 12.6813 8.75555 12.6813 6.79952 12.6813C5.60958 12.6813 4.78173 11.8518 4.78003 10.6686C4.78003 10.4289 4.78853 10.1893 4.78003 9.94957C4.78003 9.82208 4.81233 9.79658 4.93472 9.79658C6.73549 9.79658 8.53513 9.79658 10.3336 9.79658C10.7296 9.8046 11.1231 9.73284 11.4908 9.58556C11.8584 9.43829 12.1927 9.21851 12.4736 8.93933C12.7545 8.66016 12.9764 8.32729 13.126 7.96056C13.2755 7.59383 13.3497 7.20075 13.3442 6.80474C13.3442 5.87829 13.3442 4.95354 13.3442 4.02879C13.3442 3.89959 13.3799 3.87579 13.5006 3.87749C14.0411 3.87749 14.5817 3.87749 15.1223 3.87749C15.3894 3.86897 15.6554 3.91586 15.9036 4.01518C16.1517 4.11451 16.3766 4.26414 16.564 4.45464C16.7515 4.64515 16.8975 4.8724 16.9928 5.12209C17.0882 5.37179 17.1308 5.63852 17.118 5.90549V10.1009Z" fill="black"/>
</g>
<defs>
<clipPath id="clip0_100_1019">
<rect width="17.1181" height="15" fill="white"/>
</clipPath>
</defs>
</svg>
