<svg width="18" height="15" viewBox="0 0 18 15" fill="none" xmlns="http://www.w3.org/2000/svg">
<path d="M0 5.95794C0.745371 6.16203 1.12693 6.66781 1.28665 7.36882C1.42863 7.97221 1.37539 8.58449 1.36652 9.19676C1.36652 9.46296 1.44638 9.57831 1.69483 9.67592C2.75965 10.093 3.36305 10.936 3.71798 11.9919C3.7446 12.0718 3.76235 12.1605 3.78897 12.2404C3.82447 12.3557 3.90433 12.4178 4.01968 12.3912C4.14391 12.3646 4.1794 12.267 4.15278 12.1516C4.09954 11.9475 4.03743 11.7434 3.95757 11.5393C3.55826 10.5278 2.9105 9.75578 1.89005 9.32986C1.76582 9.27662 1.75695 9.20563 1.75695 9.09027C1.74807 8.5135 1.79244 7.92785 1.67709 7.35995C1.57948 6.86303 1.38426 6.41936 1.0027 6.07329C0.922841 6.00231 0.905095 5.92244 0.905095 5.82483C0.905095 4.81326 0.905095 3.81056 0.905095 2.79898C0.905095 2.35531 1.20679 2.04474 1.61497 2.04474C2.03203 2.04474 2.32485 2.35531 2.32485 2.79898C2.32485 4.02352 2.32485 5.24806 2.32485 6.4726C2.32485 6.54359 2.32485 6.61457 2.3426 6.68556C2.36922 6.76542 2.44908 6.80979 2.52894 6.80092C2.61767 6.79204 2.67979 6.7388 2.68866 6.65007C2.69754 6.57908 2.69754 6.50809 2.69754 6.4371C2.69754 4.54705 2.69754 2.65701 2.69754 0.766957C2.69754 0.199055 3.22107 -0.164757 3.70911 0.074827C4.01081 0.216803 4.12616 0.483006 4.12616 0.811324C4.12616 2.77236 4.12616 4.7334 4.12616 6.69444C4.12616 6.84528 4.05518 7.07599 4.32138 7.07599C4.57871 7.06712 4.50772 6.84528 4.50772 6.68556C4.50772 5.1682 4.50772 3.65083 4.50772 2.13347C4.50772 1.80515 4.6497 1.56557 4.96027 1.44134C5.23535 1.32599 5.49268 1.37923 5.71452 1.58332C5.90086 1.75191 5.94522 1.96488 5.94522 2.21333C5.94522 3.97915 5.94522 5.74497 5.94522 7.50192C5.94522 7.65277 5.88311 7.86573 6.12269 7.87461C6.38002 7.88348 6.32678 7.66164 6.32678 7.50192C6.32678 6.35724 6.32678 5.21257 6.32678 4.06789C6.32678 3.58872 6.61961 3.2604 7.04554 3.2604C7.45371 3.26928 7.75541 3.59759 7.75541 4.05901C7.75541 6.34837 7.75541 8.63773 7.75541 10.9271C7.75541 11.0336 7.72879 11.1312 7.68442 11.2199C7.46259 11.6725 7.26737 12.1427 7.01891 12.5864C6.81483 12.9591 6.8237 13.3673 6.77046 13.7666C6.72609 14.1215 6.6906 14.4765 6.67285 14.8314C6.66398 14.9734 6.61961 15 6.48651 15C4.89816 15 3.3098 14.9911 1.72145 15C1.55286 15 1.52624 14.929 1.52624 14.7959C1.49962 14.2458 1.45525 13.7045 1.4375 13.1543C1.42863 13.0123 1.38426 12.897 1.28665 12.7994C0.89622 12.3912 0.505788 11.983 0.115355 11.5748C0.0443676 11.5039 0 11.4329 0 11.3264C0 9.54282 0 7.76812 0 5.95794Z" fill="black"/>
<path d="M17.3475 5.97568C17.3475 7.16473 17.3475 8.33603 17.3475 9.50732C17.3475 10.0664 17.3387 10.6165 17.3475 11.1755C17.3475 11.353 17.3032 11.4861 17.1789 11.6192C16.8062 11.9919 16.4424 12.3912 16.0698 12.7728C15.9633 12.8792 15.91 12.9946 15.9012 13.1454C15.8745 13.6956 15.839 14.2369 15.8124 14.787C15.8035 14.9468 15.7503 14.9823 15.5995 14.9823C14.02 14.9734 12.4405 14.9734 10.861 14.9823C10.719 14.9823 10.6747 14.9556 10.6658 14.8048C10.6303 14.2812 10.5682 13.7577 10.5238 13.2431C10.5061 13.039 10.4528 12.8437 10.3552 12.6574C10.089 12.125 9.74297 11.6103 9.61874 11.0424C9.49451 10.4834 9.59212 9.87114 9.59212 9.28549C9.59212 7.53741 9.59212 5.78934 9.59212 4.04126C9.59212 3.49111 10.0624 3.1273 10.5416 3.30477C10.8344 3.41125 11.0119 3.67745 11.0119 4.03239C11.0119 5.19482 11.0119 6.34837 11.0119 7.51079C11.0119 7.56403 11.0119 7.62614 11.0119 7.67939C11.0207 7.79474 11.074 7.88347 11.1982 7.88347C11.3224 7.88347 11.3846 7.80362 11.3846 7.68826C11.3846 7.62615 11.3846 7.56403 11.3846 7.50192C11.3846 5.72722 11.3846 3.9614 11.3846 2.18671C11.3846 1.60993 11.8815 1.24612 12.3695 1.45909C12.6801 1.59219 12.8132 1.84952 12.8132 2.17783C12.8132 3.67745 12.8132 5.17707 12.8132 6.68556C12.8132 6.72993 12.8132 6.78317 12.8132 6.82753C12.8043 6.96951 12.8398 7.09374 13.0084 7.09374C13.177 7.09374 13.1947 6.96064 13.1947 6.81866C13.1947 4.81326 13.1947 2.81673 13.1947 0.811321C13.1947 0.385394 13.4343 0.0748231 13.807 0.0215823C14.2596 -0.040532 14.6234 0.287786 14.6234 0.766953C14.6322 1.53007 14.6234 2.29319 14.6234 3.05631C14.6234 4.19211 14.6234 5.32792 14.6234 6.46372C14.6234 6.52584 14.6234 6.58795 14.6234 6.65007C14.6322 6.75655 14.7032 6.80979 14.8008 6.80979C14.9073 6.81866 14.9783 6.75655 14.9961 6.64119C15.0049 6.57908 15.0049 6.51696 15.0049 6.45485C15.0049 5.23918 15.0049 4.02352 15.0049 2.80785C15.0049 2.2577 15.5196 1.90276 15.9988 2.11572C16.2738 2.23995 16.4247 2.47066 16.4247 2.77236C16.4336 3.80168 16.4247 4.83988 16.4247 5.8692C16.4247 5.94019 16.4247 6.0023 16.3626 6.06442C15.7592 6.61457 15.6083 7.3422 15.5817 8.11419C15.5728 8.45138 15.5728 8.7797 15.5817 9.11689C15.5817 9.24999 15.5373 9.30323 15.4131 9.35647C14.1886 9.88888 13.5319 10.8827 13.1859 12.125C13.1504 12.2492 13.1593 12.3735 13.319 12.4089C13.4698 12.4356 13.5319 12.3291 13.5586 12.2049C13.7449 11.5039 14.0643 10.8738 14.5879 10.3592C14.9162 10.0397 15.2889 9.7824 15.7237 9.6493C15.9012 9.59606 15.9544 9.49845 15.9544 9.32098C15.9633 8.67321 15.8923 8.01658 16.0431 7.37769C16.194 6.72105 16.54 6.21526 17.2233 6.01117C17.2765 5.98455 17.3032 5.98455 17.3475 5.97568Z" fill="black"/>
</svg>
