<svg width="17" height="15" viewBox="0 0 17 15" fill="none" xmlns="http://www.w3.org/2000/svg">
<g clip-path="url(#clip0_100_1017)">
<path d="M9.28412 0.527344C9.12885 0.205078 8.80073 0 8.44037 0C8.08002 0 7.75483 0.205078 7.59662 0.527344L5.71284 4.40332L1.5058 5.02441C1.15424 5.07715 0.861273 5.32324 0.752874 5.66016C0.644476 5.99707 0.732366 6.36914 0.98432 6.61816L4.03705 9.63867L3.31635 13.9072C3.25776 14.2588 3.40424 14.6162 3.69428 14.8242C3.98432 15.0322 4.36811 15.0586 4.68451 14.8916L8.4433 12.8848L12.2021 14.8916C12.5185 15.0586 12.9023 15.0352 13.1923 14.8242C13.4824 14.6133 13.6289 14.2588 13.5703 13.9072L12.8466 9.63867L15.8994 6.61816C16.1513 6.36914 16.2421 5.99707 16.1308 5.66016C16.0195 5.32324 15.7294 5.07715 15.3779 5.02441L11.1679 4.40332L9.28412 0.527344Z" fill="black"/>
</g>
<defs>
<clipPath id="clip0_100_1017">
<rect width="16.875" height="15" fill="white"/>
</clipPath>
</defs>
</svg>
