<svg width="18" height="15" viewBox="0 0 18 15" fill="none" xmlns="http://www.w3.org/2000/svg">
<g clip-path="url(#clip0_100_999)">
<path d="M17.1429 4.17393C17.1429 3.5239 16.6879 3.03109 15.9686 2.91097C16.2453 2.35634 16.2196 1.82554 15.7744 1.37777C15.3158 0.916745 14.7713 0.889366 14.1992 1.18347C14.1106 0.604981 13.8205 0.1996 13.2503 0.0503415C12.6569 -0.105099 12.194 0.120113 11.841 0.601448C11.3177 -0.176637 10.2215 -0.21638 9.66719 0.605864C9.13505 -0.198716 8.02554 -0.202249 7.48453 0.611163C7.22201 0.220796 6.86104 0 6.39099 0C5.92093 0 5.56529 0.224329 5.30543 0.618229C4.97284 0.13866 4.52318 -0.0883184 3.96 0.0317946C3.3507 0.16074 3.03142 0.580252 2.94184 1.18435C2.34496 0.902614 1.81459 0.94589 1.41904 1.32478C0.939225 1.78492 0.886898 2.32277 1.17425 2.90744C0.582692 3.00283 0.190683 3.31282 0.0319283 3.89131C0.0319283 3.90367 0.0115297 3.91339 0 3.92399V4.39031C0.17738 4.97939 0.539234 5.35475 1.17159 5.43423C0.838119 6.15314 0.994213 6.7387 1.63189 7.2006C0.887785 7.70578 0.81506 8.77708 1.65584 9.35292C1.18224 9.685 0.953416 10.1337 1.08113 10.7042C1.21416 11.295 1.62568 11.6086 2.21813 11.7013C2.2138 11.7196 2.20817 11.7376 2.20128 11.7552C1.94408 12.2983 2.0239 12.8503 2.41857 13.2442C2.81324 13.6381 3.36046 13.7158 3.90235 13.4606C4.03007 13.3997 4.00967 13.4765 4.02031 13.5489C4.04818 13.7205 4.11146 13.8844 4.20617 14.0303C4.30088 14.1763 4.42496 14.3011 4.57057 14.3969C4.71617 14.4927 4.88014 14.5573 5.05212 14.5868C5.22409 14.6163 5.40034 14.6099 5.56972 14.5681C5.89338 14.4865 6.17276 14.2833 6.3493 14.0011C6.36229 14.0104 6.37445 14.0207 6.38567 14.032C6.96747 14.8083 7.94306 14.8066 8.50713 14.0241C8.52512 13.9972 8.55018 13.9757 8.57958 13.962C8.60898 13.9483 8.64159 13.9429 8.67387 13.9464C9.10401 13.9464 9.53327 13.9464 9.96253 13.9464C10.0028 13.9418 10.0433 13.9515 10.0771 13.9738C10.1108 13.9961 10.1356 14.0296 10.147 14.0682C10.3989 14.6026 10.8202 14.9329 11.4135 14.9682C12.1933 15.0141 12.9751 15.0141 13.7549 14.9682C14.5957 14.9179 15.1739 14.267 15.181 13.412C15.1899 12.6781 15.181 11.9451 15.181 11.2111C15.181 10.8941 14.9788 10.675 14.6924 10.6671C14.4059 10.6591 14.2099 10.8649 14.1771 11.174C14.1274 11.6501 13.8551 11.8938 13.3691 11.8956C12.7722 11.8956 12.1753 11.8894 11.5785 11.9C10.908 11.9124 10.4255 12.2242 10.139 12.8318C10.127 12.8701 10.1016 12.9029 10.0675 12.9243C10.0333 12.9456 9.99267 12.9542 9.95277 12.9484C9.57318 12.9439 9.19359 12.9413 8.81399 12.9484C8.76377 12.9565 8.71227 12.9467 8.6686 12.9207C8.62494 12.8947 8.59193 12.8541 8.57542 12.8062C8.48272 12.6124 8.34161 12.4456 8.16561 12.3217C7.9896 12.1979 7.7846 12.1211 7.57024 12.0987C7.35589 12.0764 7.13936 12.1093 6.94142 12.1942C6.74347 12.2791 6.57074 12.4132 6.43977 12.5836C6.4105 12.6216 6.39454 12.6719 6.34398 12.6922C5.9094 12.1005 5.32848 11.9389 4.67307 12.2392C4.53471 12.3028 4.56841 12.2083 4.55688 12.1508C4.52124 11.9246 4.42317 11.7126 4.27362 11.5385C4.12406 11.3645 3.9289 11.2353 3.7099 11.1652C3.6102 11.1346 3.50895 11.1093 3.40658 11.0893C3.72852 10.4578 3.59371 9.79628 2.96845 9.34585C3.16213 9.22386 3.32121 9.0545 3.43052 8.85392C3.5322 8.64682 3.58528 8.41941 3.58573 8.18888C3.87658 8.34489 4.21602 8.38529 4.5356 8.30193C4.85474 8.21416 5.12954 8.01105 5.30631 7.73228C5.57238 8.13059 5.93512 8.34521 6.40518 8.34344C6.87524 8.34167 7.22556 8.11823 7.48453 7.73404C8.02288 8.54746 9.13683 8.54304 9.66098 7.74023C10.2259 8.57219 11.3292 8.51654 11.8419 7.74023C12.1815 8.21891 12.6401 8.44147 13.2174 8.30546C13.7948 8.16945 14.115 7.74906 14.201 7.15732C14.8538 7.5106 15.4161 7.30923 15.7158 7.02573C16.2036 6.56294 16.256 6.02243 15.9722 5.436C16.6923 5.31147 17.1429 4.82395 17.1429 4.17393ZM13.6095 6.01272C12.9886 5.68241 12.3084 5.78044 11.8357 6.42428C11.3363 5.66651 10.2392 5.58879 9.66187 6.42428C9.11022 5.61352 8.01933 5.62942 7.48187 6.43223C7.22113 6.04893 6.86104 5.82637 6.3972 5.82548C5.93335 5.8246 5.56883 6.04451 5.3072 6.42958C4.89479 5.83785 4.21454 5.6462 3.5334 6.00918C3.43407 5.32913 3.04029 4.93523 2.36181 4.82395C2.58442 4.24193 2.58353 4.00612 2.35205 3.52037C3.03053 3.40821 3.4323 3.01961 3.53163 2.33691C4.38305 2.64867 4.69701 2.57448 5.30543 1.91651C5.83756 2.71138 6.93998 2.72021 7.47833 1.91651C8.08142 2.77761 9.17674 2.65573 9.6601 1.90768C9.92617 2.28833 10.2809 2.51531 10.7448 2.51619C11.2086 2.51707 11.566 2.30511 11.8312 1.91739C12.3101 2.53562 12.9017 2.68223 13.605 2.33337C13.7052 3.01166 14.0964 3.40291 14.7846 3.51949C14.6698 3.71752 14.6093 3.94217 14.6093 4.17084C14.6093 4.39951 14.6698 4.62415 14.7846 4.82219C14.107 4.93788 13.7132 5.32648 13.6095 6.01272Z" fill="black"/>
</g>
<defs>
<clipPath id="clip0_100_999">
<rect width="17.1429" height="15" fill="white"/>
</clipPath>
</defs>
</svg>
