<svg width="14" height="15" viewBox="0 0 14 15" fill="none" xmlns="http://www.w3.org/2000/svg">
<path d="M10.7348 15C9.81318 15 9.0594 14.6972 8.47348 14.0915C7.89416 13.4858 7.60449 12.6037 7.60449 11.445C7.60449 10.2798 7.89745 9.39763 8.48336 8.79855C9.07585 8.19947 9.83622 7.89993 10.7645 7.89993C11.6993 7.89993 12.4531 8.19618 13.0258 8.78868C13.5986 9.37459 13.8849 10.2666 13.8849 11.4648C13.8849 12.6564 13.592 13.5451 13.0061 14.131C12.4202 14.7103 11.6631 15 10.7348 15ZM10.7447 9.79592C10.4287 9.79592 10.1621 9.94075 9.94485 10.2304C9.73418 10.5201 9.62885 10.9282 9.62885 11.4549C9.62885 11.975 9.73089 12.3766 9.93497 12.6596C10.1391 12.9361 10.4057 13.0744 10.7348 13.0744C11.0706 13.0744 11.3405 12.9328 11.5446 12.6498C11.7552 12.3667 11.8606 11.9618 11.8606 11.4352C11.8606 10.9085 11.752 10.5036 11.5347 10.2205C11.324 9.93746 11.0607 9.79592 10.7447 9.79592Z" fill="black"/>
<path d="M4.35892 8.25543C4.43792 8.05793 4.84938 7.95918 5.59329 7.95918C5.7842 7.95918 6.01791 7.97564 6.29441 8.00856C6.57749 8.03489 6.71903 8.06122 6.71903 8.08756L5.04029 11.5043L6.77828 14.7729C6.79803 14.8058 6.65649 14.8387 6.35366 14.8716C6.05083 14.898 5.79408 14.9111 5.58341 14.9111C4.74734 14.9111 4.2898 14.7992 4.2108 14.5754L3.47018 12.6893L2.79869 14.6346C2.73285 14.819 2.31152 14.9111 1.5347 14.9111C1.34378 14.9111 1.10678 14.898 0.823704 14.8716C0.540623 14.8453 0.412249 14.8091 0.438582 14.763L1.97907 11.3463L0.379332 8.08756C0.359583 8.05464 0.49454 8.02501 0.784204 7.99868C1.08045 7.96576 1.33062 7.94931 1.5347 7.94931C2.36419 7.94931 2.81844 8.06781 2.89744 8.3048L3.57881 9.96379L4.35892 8.25543Z" fill="black"/>
<path d="M3.15017 7.10007C4.07183 7.10007 4.82561 6.79724 5.41152 6.19157C5.99085 5.58591 6.28052 4.70375 6.28052 3.5451C6.28052 2.37986 5.98756 1.4977 5.40165 0.898618C4.80915 0.299539 4.04879 0 3.12054 0C2.18572 0 1.43193 0.296248 0.859188 0.888743C0.286443 1.47465 7.00951e-05 2.36669 7.00951e-05 3.56485C7.00951e-05 4.75642 0.293025 5.64516 0.878937 6.23107C1.46485 6.8104 2.22193 7.10007 3.15017 7.10007ZM3.14029 1.89598C3.45629 1.89598 3.72291 2.04082 3.94016 2.33048C4.15083 2.62015 4.25616 3.02831 4.25616 3.55497C4.25616 4.07505 4.15412 4.47663 3.95004 4.75971C3.74596 5.03621 3.47933 5.17446 3.15017 5.17446C2.81442 5.17446 2.54451 5.03292 2.34043 4.74984C2.12976 4.46675 2.02443 4.06188 2.02443 3.53522C2.02443 3.00856 2.13305 2.60369 2.3503 2.32061C2.56097 2.03752 2.8243 1.89598 3.14029 1.89598Z" fill="black"/>
<path d="M9.52608 0.355496C9.44709 0.157998 9.03563 0.0592491 8.29172 0.0592491C8.1008 0.0592491 7.8671 0.0757072 7.5906 0.108624C7.30752 0.134957 7.16598 0.16129 7.16598 0.187623L8.84472 3.60434L7.10673 6.87294C7.08698 6.90586 7.22852 6.93878 7.53135 6.97169C7.83418 6.99803 8.09093 7.01119 8.3016 7.01119C9.13767 7.01119 9.59521 6.89928 9.67421 6.67544L10.4148 4.78934L11.0863 6.73469C11.1522 6.91903 11.5735 7.01119 12.3503 7.01119C12.5412 7.01119 12.7782 6.99803 13.0613 6.97169C13.3444 6.94536 13.4728 6.90915 13.4464 6.86307L11.9059 3.44635L13.5057 0.187623C13.5254 0.154706 13.3905 0.125081 13.1008 0.0987481C12.8046 0.0658317 12.5544 0.0493736 12.3503 0.0493736C11.5208 0.0493736 11.0666 0.167873 10.9876 0.404871L10.3062 2.06386L9.52608 0.355496Z" fill="black"/>
</svg>
